HIERARCHY
ROOT Hips
{
    OFFSET 0.000000 0.000000 0.000000
    CHANNELS 6 Xposition Yposition Zposition Zrotation Xrotation Yrotation
    JOINT Spine
    {
        OFFSET -0.000000 14.517291 0.000000
        CHANNELS 3 Zrotation Xrotation Yrotation
        JOINT Spine1
        {
            OFFSET -0.000000 37.558300 0.000000
            CHANNELS 3 Zrotation Xrotation Yrotation
            JOINT Neck
            {
                OFFSET -0.000000 37.404057 3.400369
                CHANNELS 3 Zrotation Xrotation Yrotation
                JOINT Head
                {
                    OFFSET -0.000000 24.785618 -3.540803
                    CHANNELS 3 Zrotation Xrotation Yrotation
                    End Site
                    {
                        OFFSET -0.000000 35.408028 0.000000
                    }
                }
            }
            JOINT LeftShoulder
            {
                OFFSET 6.992933 33.973492 -0.192664
                CHANNELS 3 Zrotation Xrotation Yrotation
                JOINT LeftArm
                {
                    OFFSET 21.527611 0.000000 0.000000
                    CHANNELS 3 Zrotation Xrotation Yrotation
                    JOINT LeftForeArm
                    {
                        OFFSET 56.353916 0.000000 0.000000
                        CHANNELS 3 Zrotation Xrotation Yrotation
                        JOINT LeftHand
                        {
                            OFFSET 47.774071 0.000000 0.000000
                            CHANNELS 3 Zrotation Xrotation Yrotation
                            End Site
                            {
                                OFFSET 26.556021 0.000000 0.000000
                            }
                        }
                    }
                }
            }
            JOINT RightShoulder
            {
                OFFSET -7.065357 33.973492 -0.192664
                CHANNELS 3 Zrotation Xrotation Yrotation
                JOINT RightArm
                {
                    OFFSET -21.527611 0.000000 0.000000
                    CHANNELS 3 Zrotation Xrotation Yrotation
                    JOINT RightForeArm
                    {
                        OFFSET -56.353916 0.000000 0.000000
                        CHANNELS 3 Zrotation Xrotation Yrotation
                        JOINT RightHand
                        {
                            OFFSET -47.774071 0.000000 0.000000
                            CHANNELS 3 Zrotation Xrotation Yrotation
                            End Site
                            {
                                OFFSET -26.556021 0.000000 0.000000
                            }
                        }
                    }
                }
            }
        }
    }
    JOINT LeftUpLeg
    {
        OFFSET 17.704014 0.000000 0.000000
        CHANNELS 3 Zrotation Xrotation Yrotation
        JOINT LeftLeg
        {
            OFFSET -0.000000 -81.181816 0.000000
            CHANNELS 3 Zrotation Xrotation Yrotation
            JOINT LeftFoot
            {
                OFFSET -0.000000 -62.821102 0.000000
                CHANNELS 3 Zrotation Xrotation Yrotation
                JOINT LeftToeBase
                {
                    OFFSET -0.000000 -11.507608 26.556021
                    CHANNELS 3 Zrotation Xrotation Yrotation
                    End Site
                    {
                        OFFSET -0.000000 0.000000 7.081605
                    }
                }
            }
        }
    }
    JOINT RightUpLeg
    {
        OFFSET -17.704014 0.000000 0.000000
        CHANNELS 3 Zrotation Xrotation Yrotation
        JOINT RightLeg
        {
            OFFSET -0.000000 -81.181816 0.000000
            CHANNELS 3 Zrotation Xrotation Yrotation
            JOINT RightFoot
            {
                OFFSET -0.000000 -62.821102 0.000000
                CHANNELS 3 Zrotation Xrotation Yrotation
                JOINT RightToeBase
                {
                    OFFSET -0.000000 -11.507608 26.556021
                    CHANNELS 3 Zrotation Xrotation Yrotation
                    End Site
                    {
                        OFFSET -0.000000 0.000000 7.081605
                    }
                }
            }
        }
    }
}
MOTION
Frames:    14
Frame Time:    0.008333
-11.529201    152.748734    -31.886679    0.235891    -2.477560    -2.697239    -0.778757    3.338244    12.475940    0.845110    -2.656836    4.171774    1.905658    1.377659    -6.998121    3.482899    -1.240893    -7.011991    0.799571    4.449801    -8.139580    -37.245228    19.887339    -50.629345    0.393131    -29.954243    -121.825119    -1.716173    -29.266212    -5.341651    -1.486999    10.668546    4.623520    35.377712    10.562767    58.783154    -30.107307    -28.423817    44.339943    14.460626    -12.372868    35.010521    6.640890    -28.268753    -25.020168    -12.911840    26.266651    -15.945718    -7.428716    -4.047908    46.522106    0.000000    0.000000    0.000000    -3.682493    17.441105    -15.995442    1.876399    17.149170    -3.564171    7.148159    -26.845732    -1.611660    0.000000    0.000000    0.000000    
-11.521675    152.738953    -31.893820    0.238579    -2.484985    -2.645962    -0.794835    3.341217    12.463100    0.837336    -2.641194    4.167027    1.883565    1.379293    -7.021391    3.513115    -1.242820    -7.028522    0.796337    4.466486    -8.148145    -37.254730    19.898142    -50.665157    0.391999    -29.948631    -121.837006    -1.686642    -29.263954    -5.294277    -1.483712    10.670479    4.620711    35.390099    10.568968    58.761234    -30.194733    -28.477123    44.313156    14.460841    -12.400921    35.022301    6.614705    -28.280848    -25.029839    -12.914086    26.273321    -15.949848    -7.411431    -4.013214    46.496845    0.000000    0.000000    0.000000    -3.663062    17.447403    -15.985385    1.875504    17.160042    -3.574234    7.112552    -26.870796    -1.672367    0.000000    0.000000    0.000000    
-11.506837    152.728729    -31.896830    0.244422    -2.490093    -2.595344    -0.802391    3.351570    12.455426    0.823769    -2.635017    4.164021    1.850575    1.388076    -7.049711    3.546572    -1.263138    -7.047637    0.780159    4.469021    -8.147891    -37.250946    19.927118    -50.703880    0.377487    -29.927254    -121.853279    -1.652575    -29.266691    -5.273903    -1.490087    10.680052    4.590816    35.437542    10.543716    58.760208    -30.209829    -28.478920    44.319847    14.439743    -12.399424    35.033581    6.586053    -28.293493    -25.025990    -12.915070    26.281660    -15.935976    -7.391654    -3.984146    46.439976    0.000000    0.000000    0.000000    -3.650083    17.448023    -15.998668    1.851573    17.184677    -3.564275    7.123128    -26.895134    -1.694407    0.000000    0.000000    0.000000    
-11.491175    152.718567    -31.901016    0.257629    -2.493402    -2.540907    -0.817102    3.348390    12.442537    0.813649    -2.616603    4.159213    1.827478    1.394797    -7.066915    3.575414    -1.275985    -7.057500    0.776236    4.482574    -8.162287    -37.239300    19.940521    -50.741997    0.375769    -29.921846    -121.860901    -1.656972    -29.263687    -5.261548    -1.493720    10.684287    4.576025    35.457863    10.542258    58.748787    -30.263577    -28.512295    44.290070    14.447602    -12.419681    35.036606    6.547526    -28.306519    -25.028137    -12.903439    26.288918    -15.965385    -7.403144    -3.976515    46.423557    0.000000    0.000000    0.000000    -3.644935    17.448505    -15.989032    1.842669    17.203974    -3.584624    7.140216    -26.918934    -1.723239    0.000000    0.000000    0.000000    
-11.470008    152.704926    -31.902582    0.272505    -2.490571    -2.483851    -0.823511    3.337725    12.428105    0.798283    -2.596699    4.153862    1.776433    1.399031    -7.086698    3.643562    -1.276426    -7.060670    0.773748    4.490459    -8.169931    -37.226498    19.970808    -50.780502    0.384885    -29.925505    -121.867859    -1.681390    -29.251968    -5.270175    -1.502758    10.686332    4.553385    35.482597    10.544990    58.745201    -30.302195    -28.529505    44.251839    14.420156    -12.441344    35.046173    6.501556    -28.329832    -25.022516    -12.891937    26.307964    -15.997569    -7.376212    -3.956065    46.393253    0.000000    0.000000    0.000000    -3.648956    17.441422    -15.990913    1.843899    17.232967    -3.598500    7.135318    -26.953541    -1.755991    0.000000    0.000000    0.000000    
-11.444896    152.695221    -31.902632    0.286655    -2.485800    -2.431110    -0.822927    3.326810    12.417364    0.780247    -2.580136    4.149798    1.739560    1.415688    -7.102309    3.693364    -1.299168    -7.063306    0.772767    4.502181    -8.184606    -37.222511    19.981867    -50.816479    0.371694    -29.896145    -121.879135    -1.709499    -29.241480    -5.295475    -1.511291    10.699404    4.521232    35.486462    10.555401    58.747002    -30.335894    -28.552469    44.213657    14.391594    -12.476491    35.022045    6.465112    -28.352051    -25.023008    -12.898593    26.315668    -15.992784    -7.370153    -3.944938    46.345947    0.000000    0.000000    0.000000    -3.651345    17.421288    -15.994597    1.832076    17.282196    -3.586378    7.132084    -26.980421    -1.822375    0.000000    0.000000    0.000000    
-11.422215    152.682358    -31.902170    0.303370    -2.480896    -2.384877    -0.834177    3.315153    12.407913    0.775061    -2.568388    4.146356    1.708121    1.417696    -7.113766    3.726421    -1.289753    -7.066185    0.771614    4.517290    -8.193720    -37.211620    19.996025    -50.855225    0.377284    -29.879042    -121.878128    -1.744954    -29.213438    -5.341151    -1.524919    10.700490    4.504922    35.505096    10.564849    58.733086    -30.357250    -28.563139    44.167328    14.357327    -12.503680    35.027229    6.425465    -28.368359    -25.010220    -12.892906    26.315990    -15.981544    -7.345126    -3.911507    46.282829    0.000000    0.000000    0.000000    -3.659258    17.393560    -15.985600    1.825560    17.347595    -3.597492    7.123758    -27.024143    -1.879647    0.000000    0.000000    0.000000    
-11.393034    152.666611    -31.899961    0.321401    -2.474410    -2.327638    -0.831080    3.300019    12.385824    0.757104    -2.545232    4.138508    1.685348    1.396213    -7.118873    3.742287    -1.262369    -7.067191    0.769757    4.503273    -8.208609    -37.200134    20.030426    -50.870255    0.396441    -29.889568    -121.880058    -1.809438    -29.191128    -5.351067    -1.539971    10.710598    4.477631    35.507832    10.574740    58.745464    -30.371731    -28.557066    44.104347    14.265387    -12.539551    35.024319    6.370377    -28.404331    -24.994816    -12.875327    26.362099    -16.020069    -7.338560    -3.914554    46.241940    0.000000    0.000000    0.000000    -3.672349    17.361713    -15.993224    1.824794    17.424936    -3.605899    7.127116    -27.067581    -1.927371    0.000000    0.000000    0.000000    
-11.362648    152.651260    -31.896866    0.336066    -2.471295    -2.278044    -0.823234    3.294704    12.370415    0.735467    -2.535171    4.132913    1.669903    1.401625    -7.121963    3.751313    -1.261483    -7.066867    0.777248    4.505117    -8.218987    -37.188736    20.050442    -50.898941    0.416417    -29.877426    -121.873512    -1.833292    -29.146101    -5.374739    -1.554322    10.706903    4.471985    35.510414    10.601542    58.717541    -30.388416    -28.582642    44.050266    14.199322    -12.595433    35.046040    6.323439    -28.429354    -24.997250    -12.877380    26.391298    -16.048397    -7.303566    -3.901824    46.226505    0.000000    0.000000    0.000000    -3.686797    17.330145    -15.971506    1.826394    17.509600    -3.644812    7.111171    -27.111359    -1.940303    0.000000    0.000000    0.000000    
-11.330396    152.631454    -31.895012    0.348943    -2.465253    -2.222852    -0.813545    3.291039    12.347403    0.715142    -2.531039    4.124863    1.681945    1.391211    -7.117070    3.723074    -1.245124    -7.068393    0.784113    4.502102    -8.229329    -37.179077    20.074377    -50.920174    0.432826    -29.880295    -121.864700    -1.932543    -29.118340    -5.433441    -1.564058    10.717462    4.444366    35.488464    10.624173    58.727829    -30.407967    -28.562246    43.957558    14.081050    -12.624483    35.090633    6.279910    -28.468969    -24.996208    -12.893020    26.425867    -16.061794    -7.279379    -3.891231    46.198166    0.000000    0.000000    0.000000    -3.696325    17.289242    -15.990360    1.826943    17.606289    -3.603546    7.062342    -27.171743    -2.045534    0.000000    0.000000    0.000000    
-11.294412    152.606659    -31.890085    0.369344    -2.466955    -2.174619    -0.801853    3.281329    12.326357    0.689186    -2.500274    4.117221    1.670588    1.382097    -7.120280    3.728891    -1.242517    -7.069535    0.783948    4.424644    -8.306228    -37.212189    20.086264    -50.824829    0.412049    -29.832870    -121.908066    -1.924528    -29.103285    -5.429027    -1.581255    10.714454    4.440554    35.463287    10.657386    58.720535    -30.444290    -28.565399    43.856022    13.981567    -12.670855    35.124931    6.221076    -28.499264    -24.998777    -12.892515    26.475895    -16.079025    -7.255367    -3.893268    46.168434    0.000000    0.000000    0.000000    -3.718148    17.253012    -16.005678    1.809684    17.714716    -3.608735    7.076972    -27.242290    -2.071078    0.000000    0.000000    0.000000    
-11.263577    152.580017    -31.883160    0.381220    -2.473575    -2.129235    -0.791294    3.289141    12.302958    0.668527    -2.490269    4.108999    1.680678    1.381886    -7.112827    3.707576    -1.254865    -7.066001    0.806888    4.436935    -8.305426    -37.193886    20.095781    -50.864380    0.413292    -29.832008    -121.899086    -1.973517    -29.097500    -5.490247    -1.585173    10.717464    4.428202    35.455933    10.653354    58.717556    -30.425653    -28.525534    43.780811    13.929728    -12.669147    35.163799    6.184241    -28.526985    -24.990793    -12.921382    26.521326    -16.073732    -7.223856    -3.900900    46.132477    0.000000    0.000000    0.000000    -3.726908    17.232140    -16.007538    1.794261    17.801323    -3.629324    7.104360    -27.305258    -2.078941    0.000000    0.000000    0.000000    
-11.234152    152.548111    -31.876310    0.395562    -2.483706    -2.088824    -0.791825    3.301346    12.280175    0.658682    -2.482687    4.101105    1.712300    1.445969    -7.039808    3.660342    -1.373426    -6.996741    0.821624    4.426579    -8.303937    -37.164917    20.138058    -50.893204    0.446664    -29.871847    -121.876114    -1.985730    -29.084528    -5.513267    -1.588624    10.717649    4.421566    35.429611    10.673347    58.715363    -30.433989    -28.517431    43.683750    13.937629    -12.677160    35.218384    6.146061    -28.548183    -24.974504    -12.936523    26.568434    -16.071218    -7.168071    -3.889534    46.072498    0.000000    0.000000    0.000000    -3.740962    17.218546    -15.988362    1.782093    17.885391    -3.602480    7.100223    -27.386240    -2.133790    0.000000    0.000000    0.000000    
-11.203856    152.514297    -31.867039    0.413109    -2.491959    -2.042344    -0.795639    3.305801    12.255743    0.663767    -2.471601    4.092958    1.690317    1.468050    -7.039366    3.672286    -1.409377    -6.989982    0.814812    4.414515    -8.323861    -37.146118    20.146637    -50.894920    0.446902    -29.881969    -121.864944    -2.002434    -29.093019    -5.562053    -1.602916    10.708808    4.421194    35.429794    10.667428    58.697205    -30.382507    -28.486353    43.629986    13.916772    -12.684175    35.246731    6.103592    -28.571623    -24.972075    -12.967093    26.608688    -16.045034    -7.126350    -3.895315    46.025635    0.000000    0.000000    0.000000    -3.754889    17.271780    -15.965865    1.790515    17.935276    -3.645094    7.131606    -27.521173    -2.102250    0.000000    0.000000    0.000000    
